<svg xmlns="http://www.w3.org/2000/svg" xmlns:xlink="http://www.w3.org/1999/xlink" id="dnyaneshwar" width="1190.551" height="841.89" x="0" y="0" enable-background="new 0 0 1190.551 841.89" version="1.1" viewBox="0 0 1190.551 841.89" xml:space="preserve">
  <g>
    <path fill="#FFF" d="M200,400c-4.607,1.153-10.684,2.375-18.238,3.669c-7.553,1.296-16.294,1.941-26.223,1.941 c-8.633,0-15.901-1.261-21.8-3.774c-5.9-2.516-10.648-6.079-14.244-10.685c-3.598-4.606-6.188-10.037-7.771-16.296 c-1.584-6.259-2.373-13.197-2.373-20.828v-63.021h20.072v58.704c0,13.672,2.158,23.457,6.475,29.354 c4.316,5.9,11.581,8.85,21.798,8.85c2.159,0,4.387-0.073,6.692-0.219c2.3-0.141,4.457-0.322,6.474-0.539 c2.014-0.215,3.847-0.43,5.504-0.646c1.651-0.217,2.838-0.467,3.56-0.754v-94.75h20.073V400z"/>
    <path fill="#FFF" d="M239.459,287.939c2.444-1.581,6.151-3.237,11.115-4.963c4.964-1.728,10.684-2.59,17.159-2.59 c8.055,0,15.217,1.439,21.475,4.315c6.258,2.88,11.547,6.907,15.863,12.089c4.318,5.178,7.589,11.367,9.82,18.561 c2.228,7.196,3.346,15.107,3.346,23.739c0,9.066-1.333,17.234-3.993,24.498c-2.665,7.267-6.442,13.416-11.333,18.452 c-4.892,5.038-10.79,8.925-17.698,11.654c-6.906,2.732-14.676,4.101-23.31,4.101c-9.354,0-17.626-0.646-24.82-1.94 c-7.197-1.295-13.095-2.59-17.698-3.885V239.565l20.072-3.451V287.939z M239.459,377.724c2.014,0.577,4.854,1.116,8.525,1.618 c3.668,0.505,8.235,0.755,13.706,0.755c10.791,0,19.424-3.562,25.9-10.683c6.474-7.122,9.712-17.23,9.712-30.325 c0-5.75-0.577-11.146-1.727-16.187c-1.154-5.035-3.021-9.387-5.611-13.057c-2.591-3.67-5.937-6.546-10.036-8.635 c-4.102-2.083-9.032-3.128-14.785-3.128c-5.47,0-10.505,0.938-15.108,2.806c-4.607,1.872-8.132,3.814-10.576,5.826V377.724z"/>
    <path fill="#FFF" d="M430.257,400c-4.606,1.153-10.685,2.375-18.239,3.669c-7.554,1.296-16.294,1.941-26.223,1.941 c-8.635,0-15.902-1.261-21.8-3.774c-5.901-2.516-10.65-6.079-14.244-10.685c-3.599-4.606-6.188-10.037-7.771-16.296 c-1.583-6.259-2.374-13.197-2.374-20.828v-63.021h20.074v58.704c0,13.672,2.157,23.457,6.475,29.354 c4.316,5.9,11.58,8.85,21.799,8.85c2.156,0,4.387-0.073,6.689-0.219c2.299-0.141,4.459-0.322,6.475-0.539 c2.014-0.215,3.849-0.43,5.504-0.646c1.652-0.217,2.84-0.467,3.562-0.754v-94.75h20.072V400z"/>
    <path fill="#FFF" d="M460.174,286.073c4.603-1.15,10.715-2.375,18.346-3.671c7.625-1.294,16.404-1.941,26.33-1.941 c8.922,0,16.33,1.262,22.23,3.776c5.898,2.521,10.611,6.043,14.137,10.576c3.523,4.532,6.008,9.967,7.447,16.296 c1.438,6.334,2.16,13.311,2.16,20.937V405.3h-20.074v-58.705c0-6.905-0.469-12.804-1.404-17.698 c-0.936-4.888-2.479-8.848-4.639-11.868c-2.16-3.023-5.037-5.216-8.633-6.584c-3.602-1.368-8.061-2.051-13.381-2.051 c-2.158,0-4.393,0.074-6.691,0.216c-2.303,0.145-4.498,0.326-6.582,0.54c-2.092,0.216-3.961,0.47-5.613,0.756 c-1.655,0.29-2.844,0.506-3.562,0.646V405.3h-20.07V286.073z"/>
    <path fill="#FFF" d="M575.041,283.686h42.518v16.835h-42.518v51.796c0,5.613,0.428,10.252,1.295,13.921 c0.863,3.673,2.156,6.55,3.883,8.634c1.729,2.088,3.885,3.564,6.475,4.425c2.59,0.863,5.611,1.297,9.066,1.297 c6.186,0,11.08-0.682,14.676-2.051c3.594-1.366,6.043-2.339,7.338-2.913l4.316,16.404c-2.016,1.007-5.578,2.302-10.684,3.881 c-5.107,1.582-10.898,2.375-17.375,2.375c-7.625,0-13.92-0.97-18.883-2.913c-4.965-1.944-8.959-4.856-11.979-8.739 c-3.021-3.888-5.146-8.741-6.34-14.564c-1.207-5.831-1.815-12.061-1.815-18.683v-66.658h20.074v62.796h0.428c2.979-2.176,6.628-3.948,10.769-5.229 c4.138-1.272,8.581-1.896,13.387-1.896c6.237,0,11.244,0.713,15.009,2.138c3.764,1.434,6.575,3.538,8.317,6.361c1.744,2.817,2.896,6.056,3.344,9.699 c0.449,3.633,0.671,7.562,0.671,11.686v60.722h-20.073v-58.641c0-7.25-0.995-12.985-2.978-16.26 c-1.99-3.272-5.676-4.892-11.565-4.892c-2.868,0-5.7,0.492-8.485,1.46c-2.784,0.975-5.286,2.453-7.337,4.446 c-2.053,1.992-3.598,4.583-4.63,7.657c-1.032,3.07-1.596,6.843-1.596,11.314v56.583h-20.073v-66.81h-0.429 c-2.658,1.729-5.465,3.229-8.41,4.385c-2.945,1.156-6.228,1.734-9.854,1.734c-6.285,0-11.619-2.572-15.952-7.758 c-4.325-5.165-6.423-12.332-6.423-21.49V283.686z"/>
  </g>
</svg>
